<?xml version="1.0" encoding="UTF-8" standalone="no"?>
<!-- Created with Inkscape (http://www.inkscape.org/) -->

<svg
   width="172.53596mm"
   height="173.69272mm"
   viewBox="0 0 172.53596 173.69272"
   version="1.1"
   id="svg11213"
   xmlns:inkscape="http://www.inkscape.org/namespaces/inkscape"
   xmlns:sodipodi="http://sodipodi.sourceforge.net/DTD/sodipodi-0.dtd"
   xmlns="http://www.w3.org/2000/svg"
   xmlns:svg="http://www.w3.org/2000/svg">
  <sodipodi:namedview
     id="namedview11215"
     pagecolor="#ffffff"
     bordercolor="#000000"
     borderopacity="0.25"
     inkscape:showpageshadow="2"
     inkscape:pageopacity="0.0"
     inkscape:pagecheckerboard="0"
     inkscape:deskcolor="#d1d1d1"
     inkscape:document-units="mm"
     showgrid="false" />
  <defs
     id="defs11210" />
  <g
     inkscape:label="Layer 1"
     inkscape:groupmode="layer"
     id="layer1"
     transform="translate(-20.877587,-37.939902)">
    <path
       d="m 184.72583,101.65608 c -3.13029,-0.65504 -6.47162,-1.27468 -10.04156,-1.858914 -0.66826,-1.82351 -1.40687,-3.62931 -2.21583,-5.41741 2.1279,-2.99196 4.07994,-5.8423 5.80335,-8.51559 2.77858,-4.30206 2.18066,-9.94961 -1.40686,-13.57892 l -17.58592,-17.70394 c -2.07514,-2.08906 -4.83613,-3.169 -7.6147,-3.169 -2.02238,0 -4.06235,0.56652 -5.85611,1.75269 -2.65548,1.73498 -5.48681,3.70012 -8.45883,5.8423 -1.75858,-0.81438 -3.53476,-1.55795 -5.34611,-2.2307 -0.58034,-3.62931 -1.21343,-7.02846 -1.86411,-10.16206 -1.05515,-5.010213 -5.45163,-8.586408 -10.53396,-8.586408 H 94.703541 c -5.082329,0 -9.478812,3.576195 -10.533966,8.586408 -0.668261,3.11589 -1.283766,6.51505 -1.881692,10.16206 -1.81135,0.67275 -3.587526,1.41632 -5.346115,2.2307 -2.97202,-2.15988 -5.803351,-4.10732 -8.458824,-5.8423 -1.793763,-1.16846 -3.833729,-1.75269 -5.856109,-1.75269 -2.778573,0 -5.539562,1.07994 -7.614699,3.169 l -17.585912,17.70394 c -3.587526,3.62931 -4.185447,9.27686 -1.424459,13.57892 1.72342,2.67329 3.675456,5.52363 5.803351,8.51559 -0.808952,1.7704 -1.54756,3.55849 -2.215825,5.382 -3.605111,0.584234 -6.981607,1.221574 -10.094313,1.894324 -4.976813,1.06224 -8.529167,5.48822 -8.529167,10.60466 v 25.05107 c 0,5.11644 3.552354,9.54242 8.529167,10.60466 3.09512,0.67275 6.471615,1.29239 10.094313,1.89432 0.668265,1.8235 1.406873,3.62931 2.215825,5.382 -2.127895,2.99197 -4.079931,5.8423 -5.803351,8.51559 -2.760988,4.30206 -2.180653,9.94961 1.424459,13.57892 l 17.585912,17.70394 c 2.075137,2.08907 4.836126,3.169 7.614699,3.169 2.02238,0 4.062346,-0.56652 5.856109,-1.75269 2.655473,-1.73498 5.486804,-3.70012 8.458824,-5.84229 1.758589,0.81437 3.534765,1.55794 5.346115,2.23069 0.597926,3.62931 1.213431,7.02847 1.881692,10.16206 1.055154,5.01021 5.451637,8.58641 10.533966,8.58641 h 24.884069 c 5.08233,0 9.4788,-3.5762 10.53396,-8.58641 0.66826,-3.13359 1.28377,-6.53275 1.8641,-10.16206 1.81135,-0.67275 3.60512,-1.41632 5.38129,-2.23069 2.91926,2.12447 5.71542,4.0719 8.38848,5.82459 1.81135,1.18616 3.8689,1.77039 5.90887,1.77039 2.77857,0 5.53956,-1.07993 7.6147,-3.169 l 17.58592,-17.70394 c 3.60511,-3.62931 4.18544,-9.31227 1.38928,-13.61433 -1.741,-2.691 -3.69304,-5.52362 -5.78577,-8.44477 0.80896,-1.7704 1.56516,-3.59391 2.23342,-5.43511 3.55235,-0.58423 6.91126,-1.20387 10.04155,-1.85892 4.9944,-1.04453 8.58193,-5.47051 8.58193,-10.62236 v -25.03336 c -0.0176,-5.15185 -3.60511,-9.57784 -8.59951,-10.62237 z m -2.18066,35.65573 c -4.87129,1.02683 -10.28776,1.94744 -16.10869,2.74412 -1.45964,5.75377 -3.71063,11.15347 -6.62989,16.12828 3.55236,4.72695 6.73541,9.22375 9.46122,13.41958 l -17.58592,17.70394 c -4.16786,-2.74411 -8.63468,-5.94852 -13.33012,-9.52472 -4.94164,2.95656 -10.30534,5.20496 -16.00317,6.67438 -0.80896,5.91312 -1.72342,11.38364 -2.76099,16.21681 H 94.703541 c -1.019987,-4.85088 -1.952039,-10.30369 -2.760989,-16.21681 -5.697835,-1.46942 -11.061537,-3.71782 -15.985597,-6.65667 -4.730609,3.6116 -9.215016,6.81601 -13.347705,9.50701 L 45.023338,169.60379 c 2.690644,-4.16042 5.856109,-8.67493 9.443635,-13.43728 -2.919262,-4.95711 -5.152673,-10.35681 -6.612304,-16.09289 -5.873694,-0.81437 -11.307741,-1.73498 -16.108695,-2.77951 v -25.01566 c 4.818541,-1.02684 10.235001,-1.96515 16.108695,-2.77952 1.459631,-5.73608 3.693042,-11.135784 6.612304,-16.092884 -3.587526,-4.76236 -6.770577,-9.27687 -9.443635,-13.43729 L 62.60925,62.264816 c 4.132689,2.691 8.617096,5.89541 13.347705,9.50702 4.92406,-2.93886 10.287762,-5.20496 15.985597,-6.65668 0.80895,-5.91312 1.723415,-11.38364 2.760989,-16.21681 h 24.884069 c 1.01998,4.85088 1.95203,10.30369 2.76099,16.21681 5.69783,1.46942 11.06153,3.71782 15.98559,6.65668 4.73061,-3.61161 9.21502,-6.81602 13.3477,-9.50702 l 17.58592,17.70394 c -2.67306,4.16042 -5.85611,8.67493 -9.44364,13.43729 2.91927,4.9748 5.17026,10.374514 6.62989,16.110584 5.82094,0.81438 11.2374,1.73498 16.1087,2.74411 v 25.05107 z M 107.13678,92.255286 c -17.849702,0 -32.305321,14.570344 -32.305321,32.539844 0,17.9695 14.473206,32.52213 32.305321,32.52213 17.8497,0 32.3229,-14.57034 32.3229,-32.52213 -0.0176,-17.9695 -14.4732,-32.539844 -32.3229,-32.539844 z m 0,54.227164 c -11.905661,0 -21.542743,-9.70176 -21.542743,-21.68732 0,-11.98557 9.637082,-21.68733 21.542743,-21.68733 11.90566,0 21.54274,9.70176 21.54274,21.68733 0,11.98556 -9.65466,21.68732 -21.54274,21.68732 z"
       id="path6895"
       style="fill:#ffdb6e;fill-opacity:1;stroke:#ffdb6e;stroke-width:0.176448;stroke-opacity:1"
       inkscape:export-filename="../work/personal/razekmh.github.io/assets/images/icon-admin.svg"
       inkscape:export-xdpi="96"
       inkscape:export-ydpi="96" />
  </g>
</svg>
