<?xml version="1.0" encoding="UTF-8" standalone="no"?>
<!-- Created with Inkscape (http://www.inkscape.org/) -->

<svg
   width="108.08407mm"
   height="131.67477mm"
   viewBox="0 0 108.08407 131.67477"
   version="1.1"
   id="svg15629"
   xmlns:inkscape="http://www.inkscape.org/namespaces/inkscape"
   xmlns:sodipodi="http://sodipodi.sourceforge.net/DTD/sodipodi-0.dtd"
   xmlns="http://www.w3.org/2000/svg"
   xmlns:svg="http://www.w3.org/2000/svg">
  <sodipodi:namedview
     id="namedview15631"
     pagecolor="#ffffff"
     bordercolor="#000000"
     borderopacity="0.25"
     inkscape:showpageshadow="2"
     inkscape:pageopacity="0.0"
     inkscape:pagecheckerboard="0"
     inkscape:deskcolor="#d1d1d1"
     inkscape:document-units="mm"
     showgrid="false" />
  <defs
     id="defs15626" />
  <g
     inkscape:label="Layer 1"
     inkscape:groupmode="layer"
     id="layer1"
     transform="translate(-48.042707,-63.575953)">
    <path
       d="m 155.81115,83.949591 c -2.50325,-10.27061 -21.13487,-20.37364 -53.72657,-20.37364 -32.591713,0 -51.225463,10.10303 -53.726503,20.37364 -0.18138,0.35199 -0.31537,0.73746 -0.31537,1.17315 v 1.19702 27.532019 1.19703 1.19703 26.33499 1.19703 1.19703 28.72904 c 0,0.38818 0.0931,0.75374 0.25246,1.07976 2.55301,11.7191 25.39331,20.46703 53.789243,20.46703 28.33106,0 51.13468,-8.7121 53.77193,-20.38803 0.1732,-0.34204 0.27043,-0.73746 0.27043,-1.15876 v -28.72904 -1.19703 -1.19703 -26.33499 -1.19703 -1.19703 -27.532019 -1.19702 c 0,-0.43614 -0.13399,-0.82071 -0.31537,-1.17315 z m -4.17854,60.989369 c -0.0572,0.28956 -0.14461,0.5773 -0.25082,0.86957 -0.0866,0.23707 -0.192,0.47414 -0.30883,0.71121 -0.14461,0.29408 -0.3072,0.58906 -0.4992,0.88313 -0.14298,0.2226 -0.30475,0.44338 -0.47305,0.66326 -0.2402,0.31398 -0.49511,0.62706 -0.78515,0.93851 -0.17484,0.18912 -0.36766,0.37552 -0.56211,0.56463 -0.35458,0.34203 -0.72387,0.68226 -1.13704,1.01986 -0.17729,0.14568 -0.36765,0.28774 -0.55557,0.43071 -0.48857,0.3737 -0.99872,0.74469 -1.55854,1.10844 -0.14706,0.0986 -0.30474,0.19183 -0.45834,0.28775 -0.64381,0.40175 -1.31654,0.80169 -2.04287,1.18988 -0.0931,0.0543 -0.19036,0.0977 -0.28513,0.14568 -0.81048,0.42347 -1.65805,0.8406 -2.5638,1.24245 -0.0245,0.009 -0.049,0.0181 -0.0817,0.0362 -4.9092,2.17147 -11.18886,3.99809 -18.5062,5.19512 -0.0409,0.005 -0.0735,0.009 -0.1103,0.0181 -1.42242,0.23254 -2.88153,0.43794 -4.37961,0.61982 -0.24429,0.0271 -0.50165,0.0452 -0.74757,0.0724 -1.30788,0.15111 -2.63079,0.28955 -3.99267,0.39994 -0.62257,0.0543 -1.27536,0.0724 -1.90879,0.11763 -1.02462,0.0633 -2.03845,0.14116 -3.08905,0.18188 -1.71639,0.0633 -3.46733,0.0977 -5.25504,0.0977 -1.78772,0 -3.538663,-0.0362 -5.257253,-0.10496 -1.05052,-0.0362 -2.06435,-0.11763 -3.08897,-0.18188 -0.63319,-0.0452 -1.28623,-0.0633 -1.90879,-0.11763 -1.36189,-0.11039 -2.6848,-0.24883 -3.99267,-0.39994 -0.24674,-0.0272 -0.5041,-0.0452 -0.74757,-0.0724 -1.49808,-0.18187 -2.95719,-0.38999 -4.37961,-0.61982 -0.0327,-0.005 -0.0735,-0.009 -0.1103,-0.0181 -7.31735,-1.19703 -13.59701,-3.02374 -18.50621,-5.19521 -0.0245,-0.009 -0.049,-0.0181 -0.0817,-0.0362 -0.90574,-0.40175 -1.75527,-0.81889 -2.56371,-1.24254 -0.0931,-0.0543 -0.19281,-0.0977 -0.28514,-0.14568 -0.72632,-0.38819 -1.39856,-0.78542 -2.04278,-1.18988 -0.15115,-0.0959 -0.31128,-0.18912 -0.45834,-0.28775 -0.55966,-0.36375 -1.07005,-0.73474 -1.55854,-1.10844 -0.18628,-0.14387 -0.37828,-0.28503 -0.55557,-0.43071 -0.41259,-0.33751 -0.7827,-0.67773 -1.13704,-1.01995 -0.19282,-0.1864 -0.38727,-0.3737 -0.56211,-0.56463 -0.29004,-0.31127 -0.54495,-0.62253 -0.78515,-0.93842 -0.1683,-0.21988 -0.33089,-0.44066 -0.47305,-0.66326 -0.19037,-0.29498 -0.35213,-0.58905 -0.4992,-0.88313 -0.11683,-0.23707 -0.22059,-0.47414 -0.30883,-0.71121 -0.10621,-0.28956 -0.19036,-0.57911 -0.25082,-0.86866 -0.0817,-0.38094 -0.16831,-0.76822 -0.16831,-1.15396 0,-0.27055 0.0245,-0.5411 0.0654,-0.80894 0.0572,-0.36194 0.0245,-0.72297 -0.0654,-1.06537 v -17.77364 c 0.0572,0.0633 0.13644,0.12215 0.19935,0.18459 0.47142,0.45966 0.95109,0.91688 1.49155,1.35746 8.14302,6.82077 24.42703,12.12121 48.028303,12.12121 23.50185,0 39.74476,-5.25737 47.92243,-12.03743 0.65279,-0.52662 1.2408,-1.07016 1.79416,-1.62321 l 0.002,-0.002 v 17.77364 c -0.0907,0.34204 -0.12092,0.70398 -0.0654,1.06537 0.0409,0.26784 0.0654,0.53839 0.0654,0.80894 0,0.38547 -0.0891,0.77365 -0.17076,1.16111 z m 0.17076,-49.538369 v 17.773639 c -0.0907,0.34203 -0.12092,0.70397 -0.0654,1.06537 0.0409,0.26784 0.0654,0.53839 0.0654,0.80894 0,0.38547 -0.0891,0.77365 -0.17076,1.1611 -0.0572,0.28956 -0.14461,0.5773 -0.25082,0.86957 -0.0866,0.23707 -0.192,0.47414 -0.30883,0.71121 -0.14461,0.29408 -0.3072,0.58906 -0.4992,0.88314 -0.14298,0.22259 -0.30475,0.44337 -0.47305,0.66325 -0.2402,0.31399 -0.49511,0.62707 -0.78515,0.93852 -0.17484,0.18911 -0.36766,0.37551 -0.56211,0.56462 -0.35458,0.34204 -0.72387,0.68226 -1.13704,1.01986 -0.17729,0.14568 -0.36765,0.28774 -0.55557,0.43071 -0.48857,0.3737 -0.99872,0.74469 -1.55854,1.10844 -0.14706,0.0986 -0.30474,0.19183 -0.45834,0.28775 -0.64381,0.40175 -1.31654,0.8017 -2.04287,1.18988 -0.0931,0.0543 -0.19036,0.0977 -0.28513,0.14568 -0.81048,0.42347 -1.65805,0.84061 -2.5638,1.24245 -0.0245,0.009 -0.049,0.0181 -0.0817,0.0362 -4.9092,2.17147 -11.18886,3.99809 -18.5062,5.19512 -0.0409,0.005 -0.0735,0.009 -0.1103,0.0181 -1.42242,0.23255 -2.88153,0.43795 -4.37961,0.61982 -0.24429,0.0271 -0.50165,0.0452 -0.74757,0.0724 -1.30788,0.15111 -2.63079,0.28955 -3.99267,0.39994 -0.62257,0.0543 -1.27536,0.0724 -1.90879,0.11764 -1.02462,0.0633 -2.03845,0.14115 -3.08905,0.18187 -1.71639,0.0633 -3.46733,0.0977 -5.25504,0.0977 -1.78772,0 -3.538663,-0.0362 -5.257253,-0.10586 -1.05052,-0.0362 -2.06435,-0.11763 -3.08897,-0.18188 -0.63319,-0.0362 -1.28623,-0.0633 -1.90879,-0.11763 -1.36189,-0.11039 -2.6848,-0.24883 -3.99267,-0.39994 -0.24674,-0.0272 -0.5041,-0.0453 -0.74757,-0.0724 -1.49808,-0.18188 -2.95719,-0.38999 -4.37961,-0.61983 -0.0327,-0.005 -0.0735,-0.009 -0.1103,-0.0181 -7.31735,-1.19703 -13.59701,-3.02375 -18.50621,-5.19521 -0.0245,-0.009 -0.049,-0.0181 -0.0817,-0.0362 -0.90574,-0.40176 -1.75527,-0.81889 -2.56371,-1.24255 -0.0931,-0.0543 -0.19281,-0.0977 -0.28514,-0.14568 -0.72632,-0.38818 -1.39856,-0.78541 -2.04278,-1.18988 -0.15115,-0.0959 -0.31128,-0.18911 -0.45834,-0.28774 -0.55966,-0.36375 -1.07005,-0.73474 -1.55854,-1.10844 -0.18628,-0.14388 -0.37828,-0.28503 -0.55557,-0.43071 -0.41259,-0.33751 -0.7827,-0.67774 -1.13704,-1.01995 -0.19282,-0.1864 -0.38727,-0.37371 -0.56211,-0.56463 -0.29004,-0.31127 -0.54495,-0.62254 -0.78515,-0.93842 -0.1683,-0.21988 -0.33089,-0.44066 -0.47305,-0.66326 -0.19037,-0.29498 -0.35213,-0.58906 -0.4992,-0.88313 -0.11683,-0.23707 -0.22059,-0.47415 -0.30883,-0.71122 -0.10621,-0.28955 -0.19036,-0.5791 -0.25082,-0.86865 -0.0817,-0.38095 -0.16831,-0.76822 -0.16831,-1.15396 0,-0.27055 0.0245,-0.5411 0.0654,-0.80894 0.0572,-0.36194 0.0245,-0.72298 -0.0654,-1.06537 V 95.400281 c 0.25981,0.2606 0.55557,0.51758 0.83663,0.77546 0.15605,0.14387 0.30066,0.28774 0.46488,0.43071 0.64871,0.56463 1.34889,1.12283 2.10765,1.66629 0.15768,0.1122 0.33498,0.22259 0.4992,0.33479 0.63563,0.43795 1.30779,0.86685 2.01467,1.28797 0.26145,0.155629 0.52289,0.308549 0.79333,0.462379 0.78923,0.44518 1.61687,0.87861 2.48805,1.29755 0.14298,0.0724 0.27207,0.14116 0.4175,0.20812 1.01375,0.47595 2.09033,0.93127 3.21005,1.37185 0.30883,0.12215 0.63318,0.23707 0.95117,0.35651 0.89062,0.33298 1.81148,0.65149 2.76478,0.96005 0.34396,0.11039 0.68057,0.2253 1.03327,0.33027 1.26458,0.38818 2.57025,0.75645 3.94079,1.0965 0.18792,0.0452 0.39135,0.0905 0.58172,0.1312 1.20836,0.29227 2.46216,0.56282 3.75051,0.81618 0.43628,0.0905 0.87984,0.16739 1.32511,0.24883 1.22569,0.22259 2.48814,0.42619 3.78295,0.61259 0.33334,0.0452 0.65034,0.10315 0.98793,0.14839 1.60829,0.21536 3.2728,0.39995 4.98265,0.55829 0.42158,0.0362 0.8604,0.0633 1.28835,0.10044 1.36834,0.11039 2.76698,0.20088 4.19799,0.27327 0.52125,0.0271 1.03981,0.0543 1.57161,0.0724 1.86336,0.0724 3.761293,0.11944 5.728413,0.11944 1.96713,0 3.86514,-0.0543 5.72851,-0.11944 0.52942,-0.0181 1.04839,-0.0453 1.57152,-0.0724 1.43101,-0.0724 2.82965,-0.16288 4.19799,-0.27327 0.42812,-0.0362 0.86465,-0.0633 1.28835,-0.10044 1.70993,-0.15563 3.37444,-0.34203 4.98273,-0.55829 0.33743,-0.0452 0.65525,-0.10044 0.98785,-0.14839 1.29489,-0.1864 2.55514,-0.39 3.78295,-0.61259 0.44527,-0.0814 0.8885,-0.16287 1.32511,-0.24883 1.28835,-0.25336 2.54214,-0.52391 3.75051,-0.81618 0.19036,-0.0452 0.3938,-0.0905 0.58171,-0.1312 1.37047,-0.34023 2.67614,-0.71122 3.94071,-1.0965 0.35214,-0.10768 0.68956,-0.21988 1.03328,-0.33027 0.95329,-0.30856 1.87423,-0.62707 2.76478,-0.96005 0.31782,-0.11944 0.64217,-0.23436 0.95117,-0.35651 1.1198,-0.44067 2.19842,-0.89581 3.21013,-1.37185 0.14461,-0.0633 0.27452,-0.13844 0.4175,-0.20812 0.87118,-0.42166 1.69906,-0.85237 2.48813,-1.29755 0.27044,-0.15292 0.53352,-0.30675 0.79333,-0.462379 0.70671,-0.41895 1.37912,-0.84785 2.01467,-1.28797 0.16422,-0.1122 0.34152,-0.22259 0.4992,-0.33479 0.75901,-0.54382 1.45911,-1.09895 2.10765,-1.66629 0.16177,-0.14387 0.3072,-0.28774 0.46489,-0.43071 0.28105,-0.25879 0.57762,-0.51486 0.83662,-0.77546 z m -49.71879,-27.03644 c 29.30167,0 49.71879,9.46141 49.71879,17.95561 0,8.49421 -20.41712,17.955699 -49.71879,17.955699 -29.301683,0 -49.718803,-9.461489 -49.718803,-17.955699 0,-8.4942 20.41712,-17.95561 49.718803,-17.95561 z M 151.80337,172.9929 c -0.0327,0.10496 -0.049,0.21354 -0.0654,0.32303 -1.22569,8.28112 -21.46985,17.14649 -49.64959,17.14649 -28.179753,0 -48.423913,-8.86537 -49.649603,-17.14649 -0.0163,-0.10768 -0.0409,-0.21354 -0.0654,-0.31398 v -20.14381 c 0.0572,0.0633 0.13644,0.12215 0.19935,0.18459 0.47142,0.45966 0.95109,0.91688 1.49155,1.35745 8.14302,6.82078 24.42703,12.12122 48.028303,12.12122 23.50185,0 39.74476,-5.25737 47.92243,-12.03743 0.65279,-0.52662 1.2408,-1.07016 1.79416,-1.62321 l 0.002,-0.002 z"
       id="path11292"
       style="fill:#ffdb6e;fill-opacity:1;stroke-width:2.27492"
       inkscape:export-filename="../work/personal/razekmh.github.io/assets/images/icon-database.svg"
       inkscape:export-xdpi="96"
       inkscape:export-ydpi="96" />
  </g>
</svg>
