<?xml version="1.0" encoding="UTF-8" standalone="no"?>
<svg
   width="13.999998"
   height="11"
   viewBox="0 0 7.699999 11"
   fill="none"
   version="1.1"
   id="svg25"
   sodipodi:docname="icon-cloud.svg"
   inkscape:version="1.2.1 (9c6d41e, 2022-07-14)"
   xmlns:inkscape="http://www.inkscape.org/namespaces/inkscape"
   xmlns:sodipodi="http://sodipodi.sourceforge.net/DTD/sodipodi-0.dtd"
   xmlns="http://www.w3.org/2000/svg"
   xmlns:svg="http://www.w3.org/2000/svg">
  <sodipodi:namedview
     id="namedview27"
     pagecolor="#ffffff"
     bordercolor="#000000"
     borderopacity="0.25"
     inkscape:showpageshadow="2"
     inkscape:pageopacity="0.0"
     inkscape:pagecheckerboard="0"
     inkscape:deskcolor="#d1d1d1"
     showgrid="false"
     inkscape:zoom="89.000012"
     inkscape:cx="6.3483137"
     inkscape:cy="5.4999993"
     inkscape:window-width="1390"
     inkscape:window-height="1205"
     inkscape:window-x="1080"
     inkscape:window-y="55"
     inkscape:window-maximized="0"
     inkscape:current-layer="svg25" />
  <defs
     id="defs23" />
  <path
     style="color:#4d4d4d;fill:#ffdb6e;fill-opacity:1;stroke:none;stroke-width:0.990657"
     d="M 3.3459107,0.07865165 A 4.4711075,4.4448417 0 0 0 -1.1251967,4.5234933 4.4711075,4.4448417 0 0 0 -1.0728057,5.1716994 2.9807384,2.9632278 0 0 0 -3.112361,7.9805923 2.9807384,2.9632278 0 0 0 -0.13162264,10.94382 H 7.3202236 A 3.4775281,3.4570991 0 0 0 10.797751,7.486721 3.4775281,3.4570991 0 0 0 7.7879044,4.0643481 4.4711075,4.4448417 0 0 0 3.3459058,0.07865165 Z m 0,0.98774255 A 3.4775281,3.4570991 0 0 1 6.8234388,4.5234933 3.4775281,3.4570991 0 0 1 6.7729849,5.0810276 2.4839486,2.4693565 0 0 1 7.3202295,5.0173676 2.4839486,2.4693565 0 0 1 9.8041782,7.486724 2.4839486,2.4693565 0 0 1 7.3202295,9.9560806 H -0.13161727 A 1.9871589,1.9754852 0 0 1 -2.1187762,7.9805953 1.9871589,1.9754852 0 0 1 -0.13161727,6.0051102 1.9871589,1.9754852 0 0 1 0.22350989,6.0379032 3.4775281,3.4570991 0 0 1 -0.13161727,4.5234933 3.4775281,3.4570991 0 0 1 3.3459107,1.0663942 Z"
     id="path4139"
     class="ColorScheme-Text"
     inkscape:export-filename="icon-cloud.svg"
     inkscape:export-xdpi="96"
     inkscape:export-ydpi="96" />
</svg>
