<?xml version="1.0" encoding="UTF-8" standalone="no"?>
<svg
   width="13.999998"
   height="11"
   viewBox="0 0 7.699999 11"
   fill="none"
   version="1.1"
   id="svg25"
   sodipodi:docname="icon-app.svg"
   xmlns:inkscape="http://www.inkscape.org/namespaces/inkscape"
   xmlns:sodipodi="http://sodipodi.sourceforge.net/DTD/sodipodi-0.dtd"
   xmlns="http://www.w3.org/2000/svg"
   xmlns:svg="http://www.w3.org/2000/svg">
  <sodipodi:namedview
     id="namedview27"
     pagecolor="#ffffff"
     bordercolor="#000000"
     borderopacity="0.25"
     inkscape:showpageshadow="2"
     inkscape:pageopacity="0.0"
     inkscape:pagecheckerboard="0"
     inkscape:deskcolor="#d1d1d1"
     showgrid="false" />
  <defs
     id="defs23" />
  <path
     style="color:#4d4d4d;fill:#ffdb6e;fill-opacity:1;stroke:none"
     d="M -2.4999953,-2.1749878e-8 A 4.5,4.5 0 0 0 -6.9999952,4.5 a 4.5,4.5 0 0 0 0.05273,0.65625 3,3 0 0 0 -2.052735,2.8437499 3,3 0 0 0 3,3.0000001 h 7.4999999 a 3.5,3.5 0 0 0 3.5,-3.5000001 A 3.5,3.5 0 0 0 1.9707027,4.035157 4.5,4.5 0 0 0 -2.5000003,-2.1749877e-8 Z m 0,1.000000001749878 a 3.5,3.5 0 0 1 3.5,3.50000002 3.5,3.5 0 0 1 -0.05078,0.564453 2.5,2.5 0 0 1 0.55078101,-0.06445 2.5,2.5 0 0 1 2.5,2.4999999 2.5,2.5 0 0 1 -2.5,2.5000001 h -7.5000009 a 2,2 0 0 1 -2,-2.0000001 2,2 0 0 1 2,-1.9999999 2,2 0 0 1 0.357422,0.0332 A 3.5,3.5 0 0 1 -5.9999952,4.5 3.5,3.5 0 0 1 -2.4999953,0.99999998 Z"
     id="path4139"
     class="ColorScheme-Text" />
</svg>
