<?xml version="1.0" encoding="UTF-8" standalone="no"?>
<!-- Generator: Adobe Illustrator 19.0.0, SVG Export Plug-In . SVG Version: 6.00 Build 0)  -->

<svg
   version="1.1"
   id="Layer_1"
   x="0px"
   y="0px"
   viewBox="0 0 262142.97 262142.97"
   xml:space="preserve"
   sodipodi:docname="analysis-svgrepo-com.svg"
   inkscape:export-filename="../work/personal/razekmh.github.io/assets/images/icon-analytics.svg"
   inkscape:export-xdpi="96"
   inkscape:export-ydpi="96"
   width="262142.97"
   height="262142.97"
   xmlns:inkscape="http://www.inkscape.org/namespaces/inkscape"
   xmlns:sodipodi="http://sodipodi.sourceforge.net/DTD/sodipodi-0.dtd"
   xmlns="http://www.w3.org/2000/svg"
   xmlns:svg="http://www.w3.org/2000/svg"><defs
   id="defs13509" /><sodipodi:namedview
   id="namedview13507"
   pagecolor="#ffffff"
   bordercolor="#000000"
   borderopacity="0.25"
   inkscape:showpageshadow="2"
   inkscape:pageopacity="0.0"
   inkscape:pagecheckerboard="0"
   inkscape:deskcolor="#d1d1d1"
   showgrid="false" />
<g
   id="g13450"
   style="fill:#ffdb6e;fill-opacity:1">
	<g
   id="g13448"
   style="fill:#ffdb6e;fill-opacity:1">
		<path
   d="m 331.217,108.319 c -61.467,-61.466 -161.481,-61.466 -222.949,0 -29.776,29.775 -46.175,69.365 -46.175,111.475 0,42.11 16.399,81.7 46.174,111.475 30.733,30.733 71.104,46.101 111.474,46.101 40.371,0 80.741,-15.367 111.475,-46.101 61.467,-61.468 61.467,-161.482 10e-4,-222.95 z M 319.76,319.812 c -55.149,55.153 -144.887,55.15 -200.036,0 -26.717,-26.714 -41.43,-62.236 -41.43,-100.018 0,-37.782 14.714,-73.303 41.429,-100.019 27.575,-27.575 63.797,-41.362 100.019,-41.362 36.222,0 72.443,13.788 100.019,41.363 55.15,55.15 55.15,144.886 -0.001,200.036 z"
   id="path13446"
   style="fill:#ffdb6e;fill-opacity:1" />
	</g>
</g>


<g
   id="g13468">
	<g
   id="g13466">
		<path
   d="m 509.576,461.512 -61.097,-61.097 c -3.165,-3.162 -8.293,-3.162 -11.457,0 l -12.601,12.601 -43.647,-43.647 c 37.947,-40.782 58.762,-93.576 58.762,-149.575 0,-58.708 -22.863,-113.904 -64.376,-155.418 C 333.646,22.863 278.451,0 219.742,0 161.032,0 105.838,22.863 64.324,64.376 c -85.697,85.698 -85.697,225.138 0,310.836 41.513,41.512 96.708,64.375 155.418,64.375 56,0 108.792,-20.815 149.574,-58.762 l 43.647,43.647 -12.601,12.601 c -3.163,3.165 -3.163,8.293 0,11.456 l 61.097,61.097 c 1.582,1.581 3.656,2.372 5.729,2.372 2.073,0 4.146,-0.791 5.729,-2.372 l 36.659,-36.659 c 3.162,-3.162 3.162,-8.291 0,-11.455 z M 363.703,363.755 c -38.453,38.455 -89.58,59.632 -143.961,59.632 -54.381,0 -105.509,-21.177 -143.962,-59.632 -79.381,-79.381 -79.381,-208.542 0,-287.922 38.454,-38.455 89.581,-59.632 143.962,-59.632 54.381,0 105.508,21.177 143.961,59.632 38.455,38.454 59.632,89.581 59.632,143.961 0,54.38 -21.177,105.508 -59.632,143.961 z m 103.486,128.689 -49.642,-49.642 12.591,-12.591 c 0.003,-0.003 0.008,-0.006 0.011,-0.01 0.003,-0.003 0.006,-0.008 0.01,-0.011 l 12.591,-12.591 49.642,49.642 z"
   id="path13464"
   style="fill:#ffdb6e;fill-opacity:1" />
	</g>
</g>
<g
   id="g13474"
   style="fill:#ffdb6e;fill-opacity:1">
	<g
   id="g13472"
   style="fill:#ffdb6e;fill-opacity:1">
		<path
   d="m 331.036,263.537 h -9.181 V 137.709 c 0,-4.475 -3.626,-8.101 -8.1,-8.101 h -38.883 c -4.475,0 -8.101,3.626 -8.101,8.101 V 263.537 H 244.09 v -86.946 c 0,-4.475 -3.627,-8.1 -8.101,-8.1 h -38.882 c -4.474,0 -8.101,3.626 -8.101,8.1 v 86.946 H 166.325 V 163.63 c 0,-4.475 -3.627,-8.101 -8.101,-8.101 h -38.882 c -4.474,0 -8.101,3.626 -8.101,8.101 v 99.906 h -9.181 c -4.474,0 -8.101,3.626 -8.101,8.1 0,4.474 3.627,8.101 8.101,8.101 h 17.281 38.882 38.883 38.882 38.882 38.883 17.281 c 4.475,0 8.101,-3.626 8.101,-8.101 0,-4.475 -3.624,-8.099 -8.099,-8.099 z m -180.911,0 h -22.681 v -91.806 h 22.681 z m 77.765,0 h -22.681 v -78.845 h 22.681 z m 77.765,0 H 282.974 V 145.809 h 22.681 z"
   id="path13470"
   style="fill:#ffdb6e;fill-opacity:1" />
	</g>
</g>















</svg>
