<?xml version="1.0" encoding="UTF-8" standalone="no"?>
<!-- Svg Vector Icons : http://www.onlinewebfonts.com/icon -->

<svg
   version="1.1"
   x="0px"
   y="0px"
   viewBox="0 0 980100 980100"
   enable-background="new 0 0 1000 1000"
   xml:space="preserve"
   id="svg3113"
   sodipodi:docname="bc91657886fe33aff1919bdeb1a4ef96.svg"
   width="980100"
   height="980100"
   xmlns:inkscape="http://www.inkscape.org/namespaces/inkscape"
   xmlns:sodipodi="http://sodipodi.sourceforge.net/DTD/sodipodi-0.dtd"
   xmlns="http://www.w3.org/2000/svg"
   xmlns:svg="http://www.w3.org/2000/svg"><defs
   id="defs3117" /><sodipodi:namedview
   id="namedview3115"
   pagecolor="#ffffff"
   bordercolor="#000000"
   borderopacity="0.25"
   inkscape:showpageshadow="2"
   inkscape:pageopacity="0.0"
   inkscape:pagecheckerboard="0"
   inkscape:deskcolor="#d1d1d1"
   showgrid="false" />
<metadata
   id="metadata3107"> Svg Vector Icons : http://www.onlinewebfonts.com/icon </metadata>
<g
   id="g3111"
   transform="translate(-10000,-9900)"><path
     d="m 941.2,369.3 c -17.8,-3.7 -36.8,-7.2 -57.1,-10.5 -3.8,-10.3 -8,-20.5 -12.6,-30.6 12.1,-16.9 23.2,-33 33,-48.1 15.8,-24.3 12.4,-56.2 -8,-76.7 l -100,-100 C 784.7,91.6 769,85.5 753.2,85.5 c -11.5,0 -23.1,3.2 -33.3,9.9 -15.1,9.8 -31.2,20.9 -48.1,33 -10,-4.6 -20.1,-8.8 -30.4,-12.6 -3.3,-20.5 -6.9,-39.7 -10.6,-57.4 -6,-28.3 -31,-48.5 -59.9,-48.5 H 429.3 c -28.9,0 -53.9,20.2 -59.9,48.5 -3.8,17.6 -7.3,36.8 -10.7,57.4 -10.3,3.8 -20.4,8 -30.4,12.6 -16.9,-12.2 -33,-23.2 -48.1,-33 -10.2,-6.6 -21.8,-9.9 -33.3,-9.9 -15.8,0 -31.5,6.1 -43.3,17.9 l -100,100 c -20.4,20.5 -23.8,52.4 -8.1,76.7 9.8,15.1 20.9,31.2 33,48.1 -4.6,10 -8.8,20.1 -12.6,30.4 -20.5,3.3 -39.7,6.9 -57.4,10.7 -28.3,6 -48.5,31 -48.5,59.9 v 141.5 c 0,28.9 20.2,53.9 48.5,59.9 17.6,3.8 36.8,7.3 57.4,10.7 3.8,10.3 8,20.5 12.6,30.4 -12.1,16.9 -23.2,33 -33,48.1 -15.7,24.3 -12.4,56.2 8.1,76.7 l 100,100 c 11.8,11.8 27.5,17.9 43.3,17.9 11.5,0 23.1,-3.2 33.3,-9.9 15.1,-9.8 31.2,-20.9 48.1,-33 10,4.6 20.1,8.8 30.4,12.6 3.4,20.5 6.9,39.7 10.7,57.4 6,28.3 31,48.5 59.9,48.5 h 141.5 c 28.9,0 53.9,-20.2 59.9,-48.5 3.8,-17.7 7.3,-36.9 10.6,-57.4 10.3,-3.8 20.5,-8 30.6,-12.6 16.6,12 32.5,23 47.7,32.9 10.3,6.7 22,10 33.6,10 15.8,0 31.5,-6.1 43.3,-17.9 l 100,-100 c 20.5,-20.5 23.8,-52.6 7.9,-76.9 -9.9,-15.2 -21,-31.2 -32.9,-47.7 4.6,-10 8.9,-20.3 12.7,-30.7 20.2,-3.3 39.3,-6.8 57.1,-10.5 28.4,-5.9 48.8,-30.9 48.8,-60 V 429.3 c -0.1,-29.1 -20.5,-54.1 -48.9,-60 z m -12.4,201.4 c -27.7,5.8 -58.5,11 -91.6,15.5 -8.3,32.5 -21.1,63 -37.7,91.1 20.2,26.7 38.3,52.1 53.8,75.8 l -100,100 c -23.7,-15.5 -49.1,-33.6 -75.8,-53.8 -28.1,16.7 -58.6,29.4 -91,37.7 -4.6,33.4 -9.8,64.3 -15.7,91.6 H 429.3 c -5.8,-27.4 -11.1,-58.2 -15.7,-91.6 -32.4,-8.3 -62.9,-21 -90.9,-37.6 -26.9,20.4 -52.4,38.5 -75.9,53.7 l -100,-100 c 15.3,-23.5 33.3,-49 53.7,-75.9 -16.6,-28 -29.3,-58.5 -37.6,-90.9 -33.4,-4.6 -64.3,-9.8 -91.6,-15.7 V 429.3 c 27.4,-5.8 58.2,-11.1 91.6,-15.7 8.3,-32.4 21,-62.9 37.6,-90.9 -20.4,-26.9 -38.5,-52.4 -53.7,-75.9 l 100,-100 c 23.5,15.2 49,33.3 75.9,53.7 28,-16.6 58.5,-29.4 90.9,-37.6 4.6,-33.4 9.8,-64.3 15.7,-91.6 h 141.5 c 5.8,27.4 11.1,58.2 15.7,91.6 32.4,8.3 62.9,21 90.9,37.6 26.9,-20.4 52.4,-38.5 75.9,-53.7 l 100,100 c -15.2,23.5 -33.3,49 -53.7,75.9 16.6,28.1 29.4,58.6 37.7,91 33.1,4.6 63.9,9.8 91.6,15.5 V 570.7 Z M 500,316.2 c -101.5,0 -183.7,82.3 -183.7,183.8 0,101.5 82.3,183.7 183.7,183.7 101.5,0 183.8,-82.3 183.8,-183.7 C 683.7,398.5 601.5,316.2 500,316.2 Z m 0,306.3 c -67.7,0 -122.5,-54.8 -122.5,-122.5 0,-67.7 54.8,-122.5 122.5,-122.5 67.7,0 122.5,54.8 122.5,122.5 0,67.7 -54.9,122.5 -122.5,122.5 z"
     id="path3109"
     style="fill:#ffdb6e;fill-opacity:1" /></g>
</svg>
